<svg xmlns="http://www.w3.org/2000/svg" version="1.1" xmlns:xlink="http://www.w3.org/1999/xlink" width="512" height="512" x="0" y="0" viewBox="0 0 512 512" style="enable-background:new 0 0 512 512" xml:space="preserve" class=""><g><path d="M471.936 340.91c-4.647-8.052-12.18-13.819-21.211-16.239-9.031-2.422-18.441-1.194-26.493 3.456l-80.076 46.233a39.512 39.512 0 0 0-1.31-12.058c-5.663-21.129-27.458-33.717-48.589-28.053l-32.854 8.804c-12.576 3.37-24.171 1.843-35.448-4.667L182.158 313.1c-17.465-10.084-35.012-3.499-55.327 4.127-11.587 4.349-24.533 9.206-39.818 12.103l-.911-3.398c-1.928-7.191-9.347-11.475-16.536-9.547l-24.162 6.474a13.405 13.405 0 0 0-8.192 6.295 13.41 13.41 0 0 0-1.354 10.241l43.3 161.598c1.615 6.025 7.084 10.009 13.045 10.009 1.153 0 2.325-.149 3.491-.462l24.162-6.474c7.189-1.927 11.472-9.345 9.546-16.537l-.077-.287c35.684-7.959 57.981-1.602 88.117 6.991 5.43 1.549 11.045 3.15 17.044 4.758 5.162 1.384 10.257 2.074 15.269 2.074 9.725 0 19.138-2.601 28.12-7.786l181.281-104.667c8.051-4.646 13.817-12.18 16.236-21.211 2.42-9.031 1.192-18.439-3.456-26.491zM93.26 495.662 50.736 336.959l21.265-5.697 42.525 158.703zM460.904 363.52c-1.382 5.16-4.666 9.457-9.246 12.102L270.376 480.288c-10.184 5.877-20.652 7.256-32.007 4.214-5.883-1.577-11.44-3.161-16.813-4.694-31.283-8.921-56.368-16.065-96.114-7.061L90.905 343.853c15.995-3.132 29.282-8.11 41.198-12.583 20.519-7.701 31.73-11.429 42.556-5.18l43.797 25.286c14.691 8.481 30.446 10.556 46.831 6.165l32.854-8.804c13.141-3.519 26.696 4.307 30.217 17.446 1.869 6.976.54 14.069-3.084 19.715-.205.263-.39.538-.557.823a24.553 24.553 0 0 1-13.805 9.678l-48.043 12.873c-8.21 2.2-16.23 2.275-23.835.223a7.5 7.5 0 1 0-3.907 14.482 58.087 58.087 0 0 0 15.178 2.009c5.414 0 10.911-.742 16.446-2.226l48.043-12.873c8.998-2.41 16.438-7.753 21.587-14.719l95.352-55.053c4.583-2.646 9.949-3.339 15.109-1.958 5.16 1.384 9.458 4.668 12.103 9.25 2.646 4.584 3.341 9.951 1.959 15.113zM110.779 19.142a7.5 7.5 0 0 1 10.245-2.745l26.575 15.344a7.5 7.5 0 0 1-7.5 12.99l-26.575-15.344a7.498 7.498 0 0 1-2.745-10.245zm-24.506 91.455a7.5 7.5 0 0 1 7.5-7.5h30.687c4.142 0 7.5 3.357 7.5 7.5s-3.358 7.5-7.5 7.5H93.773a7.5 7.5 0 0 1-7.5-7.5zm64.071 68.611a7.5 7.5 0 0 1-2.745 10.245l-26.576 15.344a7.497 7.497 0 0 1-10.245-2.745 7.5 7.5 0 0 1 2.745-10.245l26.576-15.344a7.5 7.5 0 0 1 10.245 2.745zM388.021 41.986a7.5 7.5 0 0 1 2.745-10.245l26.576-15.344a7.5 7.5 0 0 1 7.5 12.99l-26.576 15.344a7.497 7.497 0 0 1-10.245-2.745zm25.885 61.111h30.687c4.142 0 7.5 3.357 7.5 7.5s-3.358 7.5-7.5 7.5h-30.687c-4.142 0-7.5-3.357-7.5-7.5s3.357-7.5 7.5-7.5zm-25.885 76.111a7.5 7.5 0 0 1 10.245-2.745l26.576 15.344a7.5 7.5 0 0 1-7.5 12.99l-26.576-15.344a7.5 7.5 0 0 1-2.745-10.245zM205.62 213.253c-5.512 4.104-9.089 10.667-9.089 18.051a22.4 22.4 0 0 0 5.743 14.992 22.4 22.4 0 0 0-5.743 14.992c0 12.376 10.048 22.448 22.414 22.491 2.305 9.82 7.604 18.764 15.319 25.678 9.468 8.485 21.762 13.158 34.616 13.158 24.285 0 44.703-16.3 49.937-38.837 12.351-.061 22.381-10.125 22.381-22.49a22.4 22.4 0 0 0-5.743-14.992 22.4 22.4 0 0 0 5.743-14.992c0-7.16-3.367-13.545-8.597-17.667 2.342-6.367 5.385-12.011 8.497-15.641 24.65-28.756 37.68-60.615 37.68-92.134 0-27.856-11.43-54.086-32.183-73.856C325.985 12.37 298.525 1.36 269.275 1a2.853 2.853 0 0 0-.185 0c-29.25.359-56.709 11.37-77.32 31.005-20.754 19.771-32.183 46-32.183 73.856 0 31.521 13.03 63.38 37.68 92.134 3.051 3.559 6.032 9.05 8.353 15.258zm57.68-4.442-21.069-89.396 21.642 21.698a7.501 7.501 0 0 0 10.62 0l21.469-21.524-21.483 89.222zm55.406 15c4.131 0 7.493 3.361 7.493 7.493 0 4.131-3.361 7.492-7.493 7.492h-99.682c-4.132 0-7.493-3.361-7.493-7.492 0-4.132 3.361-7.493 7.493-7.493zm-49.825 83.804c-15.657 0-29.362-9.935-34.289-23.759l68.526.265c-4.939 13.836-18.429 23.494-34.237 23.494zm49.825-38.834h-99.682c-4.132 0-7.493-3.361-7.493-7.493 0-4.131 3.361-7.492 7.493-7.492h99.682c4.131 0 7.493 3.361 7.493 7.492 0 4.132-3.361 7.493-7.493 7.493zM269.183 16c52.167.689 94.596 40.982 94.596 89.861 0 27.889-11.781 56.372-34.069 82.372-4.333 5.055-8.331 12.367-11.314 20.577h-28.488l26.886-111.66a7.5 7.5 0 0 0-12.602-7.053l-35.009 35.1-35.009-35.1a7.498 7.498 0 0 0-12.61 7.017l26.325 111.696h-27.92c-2.982-8.208-6.979-15.52-11.314-20.578-22.288-25.998-34.068-54.481-34.068-82.371 0-48.878 42.428-89.171 94.596-89.861z" fill="#7b3f00" opacity="1" data-original="#000000" class=""></path></g></svg>