<svg xmlns="http://www.w3.org/2000/svg" version="1.1" xmlns:xlink="http://www.w3.org/1999/xlink" width="512" height="512" x="0" y="0" viewBox="0 0 512 512" style="enable-background:new 0 0 512 512" xml:space="preserve" class=""><g><path d="M341.235 178.486a8 8 0 0 1 8-8H504a8 8 0 0 1 0 16H349.235a8 8 0 0 1-8-8zM0 112.609C0 50.517 50.516 0 112.608 0s112.608 50.517 112.608 112.609S174.7 225.217 112.608 225.217 0 174.701 0 112.609zm208.878 8.042-82.284-.036 41.681 70.907c22.692-16.054 38.183-41.636 40.603-70.871zm-88.27-104.317v88.278l88.277.039c-3.843-46.922-41.361-84.452-88.277-88.317zM16 112.609c0 53.27 43.338 96.608 96.608 96.608 14.999 0 29.21-3.436 41.888-9.562l-48.785-82.992a7.996 7.996 0 0 1-1.104-4.054V16.334C55.067 20.415 16 62.033 16 112.609zm333.235-91.373H504a8 8 0 0 0 0-16H349.235a8 8 0 0 0 0 16zm0 33.494h77.382a8 8 0 0 0 0-16h-77.382a8 8 0 0 0 0 16zm-87.713-2.764V8a8 8 0 0 1 8-8h43.966a8 8 0 0 1 8 8v43.966a8 8 0 0 1-8 8h-43.966a8 8 0 0 1-8-8zm16-8h27.966V16h-27.966zm71.713 59.895H504a8 8 0 0 0 0-16H349.235a8 8 0 0 0 0 16zm0 33.494h77.382a8 8 0 0 0 0-16h-77.382a8 8 0 0 0 0 16zm-87.713-2.764V90.625a8 8 0 0 1 8-8h43.966a8 8 0 0 1 8 8v43.966a8 8 0 0 1-8 8h-43.966a8 8 0 0 1-8-8zm16-8h27.966V98.625h-27.966zM69.22 321.35V504a8 8 0 0 1-8 8H8a8 8 0 0 1-8-8V321.35a8 8 0 0 1 8-8h53.22a8 8 0 0 1 8 8zm-16 8H16V496h37.22zm453.888 136.342-20.422 21.046a17.315 17.315 0 0 1-12.464 5.263 17.307 17.307 0 0 1-12.091-4.895l-56.564-54.889c-3.321-3.221-5.189-7.554-5.259-12.201a17.35 17.35 0 0 1 1.345-6.972l-21.77-21.125a111.011 111.011 0 0 1-25.067 14.105V504a8 8 0 0 1-8 8h-53.219a8 8 0 0 1-8-8v-93.557a110.315 110.315 0 0 1-27.367-11.215V504a8 8 0 0 1-8 8h-53.219a8 8 0 0 1-8-8V348.35a8 8 0 0 1 8-8h11.971a110.494 110.494 0 0 1-6.474-37.354c0-42.433 23.937-79.376 59.014-98.05V173.25a8 8 0 0 1 8-8h43.966a8 8 0 0 1 8 8v19.03a110.167 110.167 0 0 1 42.169 11.7h62.96a8 8 0 0 1 0 16h-39.5c22.926 20.35 37.4 50.022 37.4 83.016 0 21.198-5.976 41.024-16.327 57.89l22.702 22.029a17.35 17.35 0 0 1 6.928-1.554c4.665-.07 9.033 1.667 12.354 4.89l56.564 54.889c6.871 6.668 7.037 17.682.37 24.552zm-108.357-91.671a111.46 111.46 0 0 1-6.734 7.379l19.914 19.324 6.954-7.166zM277.522 197.984a110.217 110.217 0 0 1 27.966-5.7V181.25h-27.966zm-59.013 105.012c0 52.385 42.619 95.004 95.005 95.004s95.004-42.619 95.004-95.004c0-52.386-42.618-95.004-95.004-95.004s-95.005 42.618-95.005 95.004zm23.721 85.02a111.79 111.79 0 0 1-26.032-31.666h-11.187V496h37.219zm96.586 23.072A110.912 110.912 0 0 1 313.513 414c-4.026 0-8-.221-11.916-.641V496h37.219zm156.78 41.533-56.564-54.889a1.332 1.332 0 0 0-.946-.374h-.023a1.338 1.338 0 0 0-.959.402l-20.423 21.047c-.315.325-.377.707-.373.97s.077.642.401.958l56.566 54.89c.523.507 1.424.493 1.93-.028l20.422-21.047c.505-.521.491-1.423-.031-1.929zm-333.95-177.975V504a8 8 0 0 1-8 8h-53.22a8 8 0 0 1-8-8V274.646a8 8 0 0 1 8-8h53.22c4.417 0 8 3.582 8 8zm-16 8h-37.22V496h37.22zm84.868 20.35c0-45.766 37.233-83 83-83s83 37.234 83 83-37.233 83-83 83-83-37.234-83-83zm83 67c16.6 0 31.798-6.082 43.515-16.117-4.071-20.581-22.122-35.65-43.515-35.65s-39.443 15.069-43.515 35.651c11.717 10.034 26.915 16.116 43.515 16.116zm0-67.767c10.19 0 18.48-8.291 18.48-18.481s-8.29-18.48-18.48-18.48-18.48 8.29-18.48 18.48 8.289 18.481 18.48 18.481zm-67 .767c0 13.588 4.077 26.237 11.057 36.809 5.844-14.418 17.043-25.921 31.047-32.238-5.93-6.196-9.584-14.586-9.584-23.819 0-19.013 15.468-34.48 34.48-34.48s34.48 15.468 34.48 34.48c0 9.233-3.655 17.623-9.584 23.819 14.004 6.317 25.204 17.82 31.047 32.238 6.979-10.572 11.057-23.22 11.057-36.809 0-36.944-30.056-67-67-67s-67 30.056-67 67z" fill="#7b3f00" opacity="1" data-original="#000000"></path></g></svg>