<svg xmlns="http://www.w3.org/2000/svg" version="1.1" xmlns:xlink="http://www.w3.org/1999/xlink" width="512" height="512" x="0" y="0" viewBox="0 0 512 512" style="enable-background:new 0 0 512 512" xml:space="preserve" class=""><g><path d="M179.1 55.11c-.44-1.53-.25-3.17.51-4.56l16.83-30.44a5.998 5.998 0 0 1 10.5 5.8l-9.81 17.75c41.42-11.54 84.89-10.67 126.27 2.61 3.16 1.01 4.89 4.39 3.88 7.55a6.01 6.01 0 0 1-5.71 4.17c-.61 0-1.23-.09-1.83-.29-39.11-12.56-80.17-13.39-119.3-2.5l17.78 9.83c2.9 1.6 3.95 5.25 2.35 8.15a5.992 5.992 0 0 1-5.26 3.1c-.98 0-1.98-.24-2.9-.75L181.96 58.7a6 6 0 0 1-2.86-3.59zM18.19 309.35c-1.58 2.91-.5 6.56 2.42 8.13l30.58 16.58c.89.48 1.87.73 2.86.73a5.9 5.9 0 0 0 1.71-.25 5.98 5.98 0 0 0 3.57-2.89l16.58-30.58c1.58-2.91.5-6.56-2.42-8.13a5.991 5.991 0 0 0-8.13 2.42l-9.67 17.85C44.32 273.59 45 231.93 57.73 192.28a6.003 6.003 0 0 0-3.88-7.55 6.007 6.007 0 0 0-7.55 3.88c-13.47 41.96-14.17 86.07-2.12 128.01l-17.84-9.67c-2.93-1.59-6.58-.51-8.15 2.4zm312.9 143.55-30.53-16.67c-2.91-1.59-6.55-.52-8.14 2.39s-.52 6.55 2.39 8.14l17.82 9.73c-39.45 11.2-80.91 10.47-120.36-2.2-3.15-1.01-6.53.72-7.55 3.88s.72 6.53 3.88 7.55c22.15 7.11 44.88 10.67 67.59 10.67 20.11 0 40.2-2.8 59.81-8.38l-9.72 17.81a5.995 5.995 0 0 0 5.26 8.87c2.12 0 4.18-1.13 5.27-3.13l16.66-30.53c1.6-2.9.53-6.54-2.38-8.13zm162.29-252.16c1.56-2.93.45-6.56-2.48-8.11l-30.71-16.33a5.966 5.966 0 0 0-4.57-.44c-1.52.46-2.8 1.52-3.54 2.92l-16.33 30.71a5.985 5.985 0 0 0 2.48 8.11 6.006 6.006 0 0 0 8.11-2.48l9.53-17.92c11.85 40.09 11.33 82.34-1.57 122.53a6.007 6.007 0 0 0 5.71 7.84c2.54 0 4.89-1.62 5.71-4.17 13.66-42.53 14.19-87.26 1.62-129.71l17.92 9.53c2.93 1.56 6.56.45 8.12-2.48zm-16.05 157.44c32.85 32.85 32.85 86.29 0 119.14-16.42 16.42-38 24.64-59.57 24.64s-43.15-8.21-59.57-24.64c-32.85-32.85-32.85-86.29 0-119.14 32.84-32.84 86.29-32.84 119.14 0zm-59.58 131.79c15.4 0 30.79-4.9 43.64-14.65-3.79-17.15-19.14-29.7-36.99-29.7h-13.3c-17.85 0-33.2 12.56-36.99 29.7 12.85 9.75 28.25 14.64 43.64 14.65zm22.17-81.26c0-12.22-9.94-22.16-22.16-22.16s-22.16 9.94-22.16 22.16 9.94 22.16 22.16 22.16c12.22.01 22.16-9.93 22.16-22.16zm28.92-42.04c-28.17-28.17-74-28.17-102.17 0-27.34 27.34-28.14 71.33-2.39 99.65 5.43-14.76 17.61-26.12 32.58-30.61-8.06-6.26-13.26-16.02-13.26-26.99 0-18.84 15.33-34.16 34.16-34.16s34.16 15.33 34.16 34.16c0 10.97-5.2 20.74-13.26 26.99 14.96 4.49 27.14 15.85 32.57 30.61 25.75-28.32 24.95-72.31-2.39-99.65zM34.67 153.82c-32.85-32.85-32.85-86.29 0-119.14 32.85-32.85 86.3-32.85 119.14 0 15.91 15.91 24.68 37.07 24.68 59.57s-8.76 43.66-24.68 59.57c-16.42 16.42-38 24.64-59.57 24.64-21.57-.01-43.14-8.22-59.57-24.64zm59.58 12.64c15.4 0 30.79-4.9 43.64-14.65-3.79-17.15-19.14-29.7-36.99-29.7H87.59c-17.85 0-33.2 12.56-36.99 29.7 12.86 9.75 28.25 14.65 43.65 14.65zm22.16-81.25c0-12.22-9.94-22.16-22.16-22.16s-22.16 9.94-22.16 22.16 9.94 22.16 22.16 22.16 22.16-9.94 22.16-22.16zm-75.64 57.6c5.43-14.76 17.61-26.12 32.58-30.61-8.06-6.26-13.26-16.03-13.26-26.99 0-18.84 15.33-34.16 34.16-34.16s34.16 15.33 34.16 34.16c0 10.97-5.2 20.74-13.26 26.99 14.96 4.49 27.15 15.85 32.58 30.62 12.12-13.32 18.76-30.43 18.76-48.57 0-19.3-7.51-37.44-21.16-51.09-28.17-28.17-74-28.17-102.17 0-27.34 27.35-28.14 71.33-2.39 99.65zm317.41 11.01c-32.85-32.85-32.85-86.29 0-119.14 32.84-32.85 86.29-32.85 119.14 0s32.85 86.29 0 119.14c-16.42 16.42-38 24.64-59.57 24.64-21.57-.01-43.14-8.22-59.57-24.64zm59.57 12.64c15.4 0 30.79-4.9 43.64-14.65-3.79-17.15-19.14-29.7-36.99-29.7h-13.3c-17.85 0-33.2 12.56-36.99 29.7 12.85 9.75 28.25 14.65 43.64 14.65zm22.17-81.25c0-12.22-9.94-22.16-22.16-22.16s-22.16 9.94-22.16 22.16 9.94 22.16 22.16 22.16 22.16-9.94 22.16-22.16zm-75.65 57.6c5.43-14.76 17.61-26.12 32.58-30.61-8.06-6.26-13.26-16.02-13.26-26.99 0-18.84 15.33-34.16 34.16-34.16s34.16 15.33 34.16 34.16c0 10.97-5.2 20.74-13.26 26.99 14.96 4.49 27.14 15.85 32.57 30.61 25.74-28.32 24.95-72.31-2.39-99.65-14.08-14.08-32.59-21.13-51.09-21.13s-37 7.04-51.09 21.13c-27.33 27.35-28.12 71.33-2.38 99.65zM153.82 358.18c32.85 32.85 32.85 86.29 0 119.14C137.9 493.24 116.75 502 94.25 502s-43.66-8.76-59.57-24.67c-32.85-32.85-32.85-86.29 0-119.14 15.91-15.91 37.07-24.67 59.57-24.67s43.65 8.75 59.57 24.66zM94.25 490c15.97 0 31.15-5.16 43.64-14.68-3.78-17.15-19.14-29.72-36.99-29.72H87.59c-17.85 0-33.2 12.56-36.99 29.71C63.1 484.84 78.27 490 94.25 490zm22.16-81.29c0-12.22-9.94-22.16-22.16-22.16s-22.16 9.94-22.16 22.16 9.94 22.16 22.16 22.16c12.22.01 22.16-9.93 22.16-22.16zm28.92-42.04c-13.65-13.65-31.79-21.16-51.09-21.16s-37.44 7.51-51.08 21.16c-27.34 27.34-28.14 71.33-2.39 99.65 5.43-14.76 17.61-26.12 32.57-30.61-8.06-6.26-13.26-16.02-13.26-26.99 0-18.84 15.33-34.16 34.16-34.16s34.16 15.33 34.16 34.16c0 10.97-5.2 20.74-13.26 26.99 14.96 4.49 27.14 15.85 32.58 30.61 25.75-28.32 24.96-72.31-2.39-99.65zm153.14-127.03c0 8.25-1.65 16.11-4.63 23.29l44.8 44.8c9.11 9.11 9.11 23.94 0 33.05-4.4 4.4-10.27 6.82-16.52 6.82-6.26 0-12.12-2.42-16.53-6.82l-44.8-44.8a60.633 60.633 0 0 1-23.29 4.63c-33.62 0-60.98-27.35-60.98-60.98s27.35-60.98 60.98-60.98 60.97 27.37 60.97 60.99zm-60.98 48.98c27.01 0 48.98-21.97 48.98-48.98s-21.97-48.98-48.98-48.98-48.98 21.97-48.98 48.98 21.97 48.98 48.98 48.98zm50.38-14.67a61.475 61.475 0 0 1-16.08 16.08l42.28 42.28c4.43 4.43 11.65 4.43 16.08 0s4.43-11.65 0-16.08z" fill="#7b3f00" opacity="1" data-original="#000000"></path></g></svg>