<svg xmlns="http://www.w3.org/2000/svg" version="1.1" xmlns:xlink="http://www.w3.org/1999/xlink" width="512" height="512" x="0" y="0" viewBox="0 0 510 510" style="enable-background:new 0 0 512 512" xml:space="preserve" fill-rule="evenodd" class=""><g><path d="M283.696 477.537c-3.276 4.199-11.414 12.52-18.446 16.519-7.78 4.425-17.56 8.944-27.652 8.944H81.874c-10.626 0-18.533-3.205-25.737-8.49-9.547-7.003-14.238-11.442-20.176-20.303-5.14-7.672-8.486-14.57-11.618-30.825-3.506-18.196-.387-104.709-.152-111.045-2.026-42.16 37.924-64.968 67.843-73.188 16.012-4.4 32.994-6.818 49.595-7.854-25.882-9.764-45.495-40.249-45.495-84.407 0-27.7 8.154-43.721 20.027-53.067 11.729-9.235 27.695-12.04 45.072-12.04 17.514 0 32.919 2.876 44.073 12.183 11.171 9.321 18.673 25.3 18.673 52.924 0 43.862-19.351 74.233-44.975 84.207 16.731.86 33.445 3.174 49.337 8.131 24.754 7.72 51.492 23.667 61.91 49.417h127.71v-10.765c0-4.404 2.383-8.104 6.361-9.929 3.937-1.817 8.354-1.231 11.66 1.622l47.463 40.289c2.511 2.112 3.867 4.975 3.867 8.341 0 3.272-1.305 6.135-3.811 8.293l-.043.037-47.495 40.316c-3.297 2.806-7.71 3.401-11.641 1.587-3.993-1.832-6.361-5.56-6.361-9.91V367.74H295.305c.191 16.182.334 35.139.225 50.7h122.431v-10.765c0-4.404 2.383-8.104 6.361-9.929 3.937-1.817 8.354-1.231 11.66 1.622l47.463 40.289c2.511 2.112 3.867 4.975 3.867 8.341 0 3.272-1.305 6.135-3.811 8.293l-.043.037-47.495 40.316c-3.297 2.806-7.71 3.401-11.641 1.587-3.993-1.832-6.361-5.56-6.361-9.91v-10.784zm10.63-152.894c.285 2.446.434 4.961.437 7.546.016.832.163 8.5.328 19.551h130.87a8 8 0 0 1 8 8v7.82l34.586-29.359-34.586-29.359v7.801a8 8 0 0 1-8 8zm.958 109.797c-.13 4.743-.312 8.596-.557 11.186-.591 6.263-1.746 11.543-3.106 15.911h134.34a8 8 0 0 1 8 8v7.819l34.586-29.358-34.586-29.359v7.801a8 8 0 0 1-8 8zm-51.752 51.802c5.046-1.241 9.766-3.795 13.808-6.094 5.465-3.108 11.792-9.793 13.935-12.708 1.893-2.573 6.266-10.006 7.523-23.319 1.842-19.488-.033-111.687-.033-111.687-.002-.054-.002-.107-.002-.16 0-32.319-29.618-49.8-55.185-57.774-19.814-6.179-41.016-7.823-61.771-7.823-21.278 0-44.317 2.071-65.534 7.9-12.498 3.434-27.335 9.666-38.777 19.521-10.572 9.106-18.185 21.431-17.309 37.747.013.248.015.496.005.743 0 0-3.659 89.495-.138 107.767 2.528 13.119 5.051 18.754 9.2 24.946 4.789 7.148 8.645 10.658 16.347 16.308 3.274 2.402 6.775 4.136 10.98 4.921V346.104c0-4.415 3.584-8 8-8 4.415 0 8 3.585 8 8V487h134.951V346.104c0-4.415 3.585-8 8-8 4.416 0 8 3.585 8 8zm-83.475-247.583c27.341 0 47.922-28.712 47.922-71.771 0-20.99-4.435-33.557-12.924-40.639-8.504-7.096-20.468-8.468-33.822-8.468-13.489 0-26.07 1.443-35.175 8.611-8.964 7.057-13.924 19.583-13.924 40.496 0 43.059 20.581 71.771 47.923 71.771zm273.904 19.104 34.586-29.359-34.586-29.359v7.801a8 8 0 0 1-8 8H272.597c-4.415 0-8-3.585-8-8s3.585-8 8-8h145.364v-10.765c0-4.404 2.383-8.104 6.361-9.929 3.937-1.817 8.354-1.23 11.66 1.622l47.463 40.289c2.511 2.112 3.867 4.975 3.867 8.341 0 3.272-1.305 6.135-3.811 8.293l-.043.037-47.495 40.316c-3.297 2.806-7.71 3.401-11.641 1.587-3.993-1.832-6.361-5.56-6.361-9.91v-10.784H272.597c-4.415 0-8-3.584-8-8 0-4.415 3.585-8 8-8h153.364a8 8 0 0 1 8 8zm-14.623-129.717c0 14.769-12.044 26.785-26.812 26.785H310.95l-34.439 35.85a8 8 0 0 1-13.769-5.542v-30.308h-7.91c-14.768 0-26.812-12.016-26.812-26.785V33.813C228.02 19.047 240.067 7 254.832 7h137.694c14.765 0 26.812 12.047 26.812 26.813zm-16 0V33.813c0-5.955-4.858-10.813-10.812-10.813H254.832c-5.954 0-10.812 4.858-10.812 10.813v94.233c0 5.951 4.861 10.785 10.812 10.785h15.91a8 8 0 0 1 8 8v18.432l23.03-23.975a8.002 8.002 0 0 1 5.77-2.457h84.984c5.951 0 10.812-4.834 10.812-10.785zM272.677 59.401c-4.415 0-8-3.584-8-8 0-4.415 3.585-8 8-8H373.03c4.415 0 8 3.585 8 8 0 4.416-3.585 8-8 8zm0 29.856c-4.415 0-8-3.585-8-8 0-4.416 3.585-8 8-8H373.03c4.415 0 8 3.584 8 8 0 4.415-3.585 8-8 8zm0 29.827c-4.415 0-8-3.585-8-8 0-4.416 3.585-8 8-8H373.03c4.415 0 8 3.584 8 8 0 4.415-3.585 8-8 8z" fill="#7b3f00" opacity="1" data-original="#000000"></path></g></svg>