<svg xmlns="http://www.w3.org/2000/svg" version="1.1" xmlns:xlink="http://www.w3.org/1999/xlink" width="512" height="512" x="0" y="0" viewBox="0 0 512 512" style="enable-background:new 0 0 512 512" xml:space="preserve"><g><path fill="#7b3f00" d="M66.9 154.7c-22 0-39.9-17.9-39.9-39.9C27 92.9 44.9 75 66.9 75s39.9 17.9 39.9 39.9c-.1 21.9-18 39.8-39.9 39.8zm0-69.7C50.4 85 37 98.4 37 114.8s13.4 29.9 29.9 29.9 29.9-13.4 29.9-29.9S83.3 85 66.9 85zM113.5 437h-94c-2.8 0-5-2.2-5-5v-1c0-28.7 23.3-52 52-52s52 23.3 52 52v1c0 2.8-2.2 5-5 5zm-88.8-10h83.6c-2-21.3-20-38-41.8-38s-39.8 16.7-41.8 38z" opacity="1" data-original="#0d0d0d"></path><path fill="#7b3f00" d="M76.5 146.5h10v240.7h-10zM0 427h133v10H0zM445.9 154.7c-22 0-39.9-17.9-39.9-39.9s17.9-39.9 39.9-39.9 39.9 17.9 39.9 39.9c-.1 22-18 39.9-39.9 39.9zm0-69.7c-16.5 0-29.9 13.4-29.9 29.9s13.4 29.9 29.9 29.9 29.9-13.4 29.9-29.9S462.3 85 445.9 85zM492.5 437h-94c-2.8 0-5-2.2-5-5v-1c0-28.7 23.3-52 52-52s52 23.3 52 52v1c0 2.8-2.2 5-5 5zm-88.8-10h83.6c-2-21.3-20-38-41.8-38s-39.8 16.7-41.8 38z" opacity="1" data-original="#0d0d0d"></path><path fill="#7b3f00" d="M425.5 146.5h10v240h-10zM455.5 146.5h10v220h-10zM379 427h133v10H379zM306.2 190.7c-.9 0-1.7-.2-2.5-.7l-17.3-10c-5.8-3.3-9.9-8.7-11.6-15.2s-.8-13.2 2.5-19l6-10.4c6.9-11.9 22.2-16 34.2-9.2 11.9 6.9 16 22.2 9.2 34.2l-16 27.7c-.7 1.1-1.8 2-3 2.3-.6.3-1.1.3-1.5.3zm-1.3-57.7c-1.3 0-2.6.2-3.9.5-3.9 1-7.1 3.5-9.1 7l-6 10.4c-2 3.5-2.5 7.5-1.5 11.4s3.5 7.1 7 9.1l13 7.5 13.5-23.4c4.1-7.2 1.7-16.4-5.5-20.5-2.3-1.3-4.9-2-7.5-2zM340.9 225.3c-8.6 0-17.1-4.5-21.7-12.5l-10-17.3c-1.4-2.4-.6-5.4 1.8-6.8l27.7-16c11.9-6.9 27.3-2.8 34.2 9.1 6.9 11.9 2.8 27.3-9.1 34.2l-10.4 6c-4 2.3-8.3 3.3-12.5 3.3zm-20.6-30.4 7.5 13c4.1 7.2 13.3 9.6 20.5 5.5l10.4-6c7.2-4.1 9.6-13.3 5.5-20.5s-13.3-9.6-20.5-5.5z" opacity="1" data-original="#0d0d0d"></path><path fill="#7b3f00" d="M223.5 250c-.4 0-.9-.1-1.3-.2-1.3-.3-2.4-1.2-3-2.3-6.9-11.9-2.8-27.3 9.1-34.2l38.1-22c.7-.4 1.4-.6 2.2-.7l44.6-2.7c1.9-.1 3.7.9 4.6 2.5l10 17.3c.9 1.5.9 3.3.1 4.9-.8 1.5-2.4 2.5-4.1 2.6l-43.5 2.6-54.3 31.6c-.8.4-1.7.6-2.5.6zm46.9-49.4L233.3 222c-5.6 3.3-8.4 9.7-7.2 15.7l50.4-29.1c.7-.4 1.4-.6 2.2-.7l36.6-2.2-4.4-7.6z" opacity="1" data-original="#0d0d0d"></path><path fill="#7b3f00" d="M264.2 283.5c-4.2 0-8.5-1.1-12.5-3.3-1.1-.7-2-1.8-2.3-3-.3-1.3-.2-2.6.5-3.8l31.4-54.4.4-6.6 10 .6-.5 7.8c0 .8-.3 1.5-.7 2.2l-29.1 50.4c2.2.4 4.4.3 6.6-.3 3.9-1 7.1-3.5 9.1-7l21.4-37.1 1.1-17.7 10 .6-1.1 18.9c0 .8-.3 1.5-.7 2.2l-22 38.1c-4.6 7.9-13 12.4-21.6 12.4zM292.7 194.9l-10-.6 1.1-18.9c.1-1.7 1.1-3.3 2.6-4.1s3.4-.8 4.9.1l17.3 10c1.6.9 2.6 2.7 2.5 4.6l-.5 7.8-10-.6.3-4.7-7.6-4.4z" opacity="1" data-original="#0d0d0d"></path><path fill="#7b3f00" d="M259.8 271H145.5c-36.4 0-66.3-28.3-68.8-64H51.5c-2.8 0-5-2.2-5-5v-20c0-2.8 2.2-5 5-5h30c2.2 0 4.1 1.4 4.8 3.5l6 19.1c7.7 24.8 30.4 41.4 56.3 41.4h122.8v10H148.6c-25.7 0-48.7-14-60.6-36 6 26.3 29.5 46 57.5 46h114.3zM56.5 197h24.4l-3.1-10H56.5zM366.5 271h-63.6v-10h63.6c28.1 0 51.6-19.7 57.5-46-11.9 21.9-34.8 36-60.6 36h-69v-10h69c25.9 0 48.6-16.6 56.3-41.4l6-19.1c.7-2.1 2.6-3.5 4.8-3.5h30c2.8 0 5 2.2 5 5v20c0 2.8-2.2 5-5 5h-25.2c-2.5 35.7-32.4 64-68.8 64zm64.6-74h24.4v-10h-21.3z" opacity="1" data-original="#0d0d0d"></path><path fill="#7b3f00" d="M46.5 146.5h10V202h-10zM46.5 222.3h10v165h-10z" opacity="1" data-original="#0d0d0d"></path></g></svg>