<svg xmlns="http://www.w3.org/2000/svg" version="1.1" xmlns:xlink="http://www.w3.org/1999/xlink" width="512" height="512" x="0" y="0" viewBox="0 0 64 64" style="enable-background:new 0 0 512 512" xml:space="preserve" class=""><g><path d="M23 53v9c0 .55.45 1 1 1h16c.55 0 1-.45 1-1v-9c0-3.47-2.54-6.35-5.86-6.9C36.85 45.04 38 43.15 38 41c0-3.31-2.69-6-6-6s-6 2.69-6 6c0 2.16 1.15 4.04 2.86 5.1-3.32.55-5.86 3.43-5.86 6.9zm5-12c0-2.21 1.79-4 4-4s4 1.79 4 4-1.79 4-4 4-4-1.79-4-4zm2 7h4c2.76 0 5 2.24 5 5v8H25v-8c0-2.76 2.24-5 5-5zM44 53v8c0 .55.45 1 1 1h14c.55 0 1-.45 1-1v-8c0-2.98-2.19-5.46-5.04-5.92a5.247 5.247 0 0 0 2.29-4.33c0-2.9-2.36-5.25-5.25-5.25s-5.25 2.35-5.25 5.25c0 1.8.91 3.39 2.29 4.33A6.003 6.003 0 0 0 44 53zm4.75-10.25c0-1.79 1.46-3.25 3.25-3.25s3.25 1.46 3.25 3.25S53.79 46 52 46s-3.25-1.46-3.25-3.25zM46 53c0-2.21 1.79-4 4-4h4c2.21 0 4 1.79 4 4v7H46zM45 23V3c0-1.1-.9-2-2-2H21c-1.1 0-2 .9-2 2v20c0 1.1.9 2 2 2h8.28l1.77 5.32c.14.41.52.68.95.68s.81-.28.95-.68L34.72 25H43c1.1 0 2-.9 2-2zm-11 0c-.43 0-.81.28-.95.68L32 26.83l-1.05-3.15A1 1 0 0 0 30 23h-9V3h22v20z" fill="#7b3f00" opacity="1" data-original="#000000" class=""></path><path d="M61 8H48v2h13v18h-7.29c-.4 0-.76.24-.92.61L52 30.46l-.79-1.85c-.16-.37-.52-.61-.92-.61H43v2h6.63l1.45 3.39c.16.37.52.61.92.61s.76-.24.92-.61L54.37 30H61c1.1 0 2-.9 2-2V10c0-1.1-.9-2-2-2zM4 53v8c0 .55.45 1 1 1h14c.55 0 1-.45 1-1v-8c0-2.98-2.19-5.46-5.04-5.92a5.247 5.247 0 0 0 2.29-4.33c0-2.9-2.36-5.25-5.25-5.25s-5.25 2.35-5.25 5.25c0 1.8.91 3.39 2.29 4.33A6.003 6.003 0 0 0 4 53zm4.75-10.25c0-1.79 1.46-3.25 3.25-3.25s3.25 1.46 3.25 3.25S13.79 46 12 46s-3.25-1.46-3.25-3.25zM6 53c0-2.21 1.79-4 4-4h4c2.21 0 4 1.79 4 4v7H6zM3 30h6.63l1.45 3.39c.16.37.52.61.92.61s.76-.24.92-.61L14.37 30H21v-2h-7.29c-.4 0-.76.24-.92.61L12 30.46l-.79-1.85c-.16-.37-.52-.61-.92-.61H3V10h13V8H3c-1.1 0-2 .9-2 2v18c0 1.1.9 2 2 2zM37.44 11h-1.03l.53-2.11c.3-1.2-.36-2.41-1.49-2.77-1.15-.36-2.38.24-2.81 1.36l-.99 2.65c-.19.52-.7.87-1.25.87H30c0-.55-.45-.99-1-.99h-4c-.55 0-1 .45-1 1v8c0 .55.45 1 1 1h4c.49 0 .88-.36.96-.82l.98.65c.16.11.36.17.55.17H37c1.3 0 2.4-.98 2.54-2.28l.43-3.9c.08-.72-.15-1.45-.64-1.99s-1.18-.85-1.91-.85zM28 18.01h-2v-6h2zm9.56-.5c-.03.28-.27.5-.55.5H31.8l-1.25-.83a.99.99 0 0 0-.55-.17V13h.39c1.38 0 2.64-.87 3.13-2.17l.99-2.65c.04-.12.18-.21.34-.16.12.04.19.22.15.37l-.84 3.36c-.08.3 0 .62.18.86s.48.38.79.38h2.31c.22 0 .35.12.42.19s.16.22.14.43l-.43 3.9z" fill="#7b3f00" opacity="1" data-original="#000000" class=""></path><path d="m51.12 22.5 1.71 1.3a1.006 1.006 0 0 0 1.2 0l1.71-1.3c1.08-.82 1.99-1.84 2.71-3.04.84-1.39.68-3.2-.4-4.39A3.147 3.147 0 0 0 55.69 14c-.86 0-1.66.35-2.27.98-.61-.63-1.42-.98-2.27-.98-.9 0-1.74.38-2.36 1.07-1.07 1.19-1.24 3-.4 4.39.72 1.2 1.63 2.22 2.71 3.04zm-.83-6.09c.24-.27.55-.41.87-.41s.64.15.88.41l.66.73c.38.42 1.11.42 1.48 0l.66-.73c.48-.53 1.27-.53 1.75 0 .47.53.55 1.39.17 2.02a8.78 8.78 0 0 1-2.21 2.48l-1.11.84-1.11-.84c-.88-.66-1.62-1.5-2.21-2.48-.38-.62-.3-1.49.17-2.02zM6.5 14.5h2v2h-2zM11.5 14.5h2v2h-2zM10 23.5c2.76 0 5-2.24 5-5h-2c0 1.65-1.35 3-3 3s-3-1.35-3-3H5c0 2.76 2.24 5 5 5z" fill="#7b3f00" opacity="1" data-original="#000000" class=""></path></g></svg>